# Blender v2.74 (sub 0) OBJ File: 'cube.blend'
# www.blender.org
mtllib cube.mtl
o Cube
v -0.666667 -0.666667 0.666667
v -0.666667 -0.666667 -0.666667
v 0.666667 -0.666667 -0.666666
v 0.666667 -0.666667 0.666667
v -0.666667 0.666667 0.666666
v -0.666666 0.666667 -0.666667
v 0.666667 0.666667 -0.666667
v 0.666667 0.666667 0.666667
v -0.750000 -0.750000 -0.000000
v -0.000000 -0.750000 0.750000
v -0.750000 0.000000 0.750000
v 0.000000 -0.750000 -0.750000
v -0.750000 0.000000 -0.750000
v 0.750000 -0.750000 0.000000
v 0.750000 0.000000 -0.750000
v 0.750000 0.000000 0.750000
v -0.750000 0.750000 -0.000000
v -0.000000 0.750000 0.750000
v 0.000000 0.750000 -0.750000
v 0.750000 0.750000 0.000000
v -0.000000 0.000000 1.000000
v 1.000000 0.000000 0.000000
v 0.000000 0.000000 -1.000000
v -1.000000 0.000000 -0.000000
v 0.000000 1.000000 -0.000000
v -0.000000 -1.000000 0.000000
vn 0.156200 -0.937000 -0.312300
vn 0.312300 0.937000 -0.156200
vn -0.937000 0.312300 -0.156200
vn 0.156200 0.312300 -0.937000
vn 0.937000 0.312300 0.156200
vn 0.156200 -0.312300 0.937000
vn 0.312300 0.156200 0.937000
vn -0.312300 0.156200 0.937000
vn -0.156200 -0.312300 0.937000
vn 0.937000 -0.156200 0.312300
vn 0.937000 -0.156200 -0.312300
vn 0.937000 0.312300 -0.156200
vn 0.312300 -0.156200 -0.937000
vn -0.312300 -0.156200 -0.937000
vn -0.156200 0.312300 -0.937000
vn -0.937000 -0.156200 -0.312300
vn -0.937000 -0.156200 0.312300
vn -0.937000 0.312300 0.156200
vn -0.156200 0.937000 -0.312300
vn -0.156200 0.937000 0.312300
vn 0.312300 0.937000 0.156200
vn 0.312300 -0.937000 0.156200
vn -0.312300 -0.937000 0.156200
vn -0.156200 -0.937000 -0.312300
vn 0.312300 -0.937000 -0.156200
vn 0.156200 0.937000 -0.312300
vn -0.937000 0.156200 -0.312300
vn 0.312300 0.156200 -0.937000
vn 0.937000 0.156200 0.312300
vn 0.312300 -0.156200 0.937000
vn 0.156200 0.312300 0.937000
vn -0.156200 0.312300 0.937000
vn -0.312300 -0.156200 0.937000
vn 0.937000 -0.312300 0.156200
vn 0.937000 -0.312300 -0.156200
vn 0.937000 0.156200 -0.312300
vn 0.156200 -0.312300 -0.937000
vn -0.156200 -0.312300 -0.937000
vn -0.312300 0.156200 -0.937000
vn -0.937000 -0.312300 -0.156200
vn -0.937000 -0.312300 0.156200
vn -0.937000 0.156200 0.312300
vn -0.312300 0.937000 -0.156200
vn -0.312300 0.937000 0.156200
vn 0.156200 0.937000 0.312300
vn 0.156200 -0.937000 0.312300
vn -0.156200 -0.937000 0.312300
vn -0.312300 -0.937000 -0.156200
usemtl Material
s off
f 26//1 12//1 3//1
f 25//2 20//2 7//2
f 24//3 17//3 6//3
f 23//4 19//4 7//4
f 22//5 20//5 8//5
f 21//6 10//6 4//6
f 21//7 16//7 8//7
f 5//8 11//8 21//8
f 1//9 10//9 21//9
f 22//10 16//10 4//10
f 3//11 15//11 22//11
f 7//12 20//12 22//12
f 23//13 15//13 3//13
f 2//14 13//14 23//14
f 6//15 19//15 23//15
f 24//16 13//16 2//16
f 1//17 11//17 24//17
f 5//18 17//18 24//18
f 25//19 19//19 6//19
f 5//20 18//20 25//20
f 8//21 20//21 25//21
f 26//22 14//22 4//22
f 1//23 9//23 26//23
f 2//24 12//24 26//24
f 14//25 26//25 3//25
f 19//26 25//26 7//26
f 13//27 24//27 6//27
f 15//28 23//28 7//28
f 16//29 22//29 8//29
f 16//30 21//30 4//30
f 18//31 21//31 8//31
f 18//32 5//32 21//32
f 11//33 1//33 21//33
f 14//34 22//34 4//34
f 14//35 3//35 22//35
f 15//36 7//36 22//36
f 12//37 23//37 3//37
f 12//38 2//38 23//38
f 13//39 6//39 23//39
f 9//40 24//40 2//40
f 9//41 1//41 24//41
f 11//42 5//42 24//42
f 17//43 25//43 6//43
f 17//44 5//44 25//44
f 18//45 8//45 25//45
f 10//46 26//46 4//46
f 10//47 1//47 26//47
f 9//48 2//48 26//48
