# Blender v2.74 (sub 0) OBJ File: 'cube.blend'
# www.blender.org
mtllib cube2.mtl
o Cube
v 0.354167 -0.791667 -0.354167
v 0.354167 0.791667 -0.354167
v -0.791667 0.354167 -0.354167
v 0.354167 0.354167 -0.791667
v 0.791667 0.354167 0.354167
v 0.354167 -0.354167 0.791667
v 0.354167 0.354167 0.791667
v -0.354167 0.354167 0.791666
v -0.354167 -0.354167 0.791667
v 0.791667 -0.354167 0.354167
v 0.791667 -0.354167 -0.354166
v 0.791667 0.354167 -0.354167
v 0.354167 -0.354167 -0.791667
v -0.354166 -0.354167 -0.791667
v -0.354166 0.354167 -0.791667
v -0.791667 -0.354167 -0.354167
v -0.791667 -0.354167 0.354167
v -0.791667 0.354167 0.354166
v -0.354166 0.791667 -0.354167
v -0.354167 0.791667 0.354166
v 0.354167 0.791667 0.354167
v 0.354167 -0.791667 0.354167
v -0.354167 -0.791667 0.354167
v -0.354167 -0.791667 -0.354167
v -0.640625 -0.640625 -0.343750
v 0.343750 -0.640625 0.640625
v -0.640625 0.343750 0.640625
v 0.343750 -0.640625 -0.640625
v -0.640625 0.343750 -0.640625
v 0.640625 -0.640625 0.343750
v 0.640625 0.343750 -0.640625
v 0.640625 0.343750 0.640625
v -0.640625 0.640625 -0.343750
v 0.343750 0.640625 0.640625
v 0.343750 0.640625 -0.640625
v 0.640625 0.640625 0.343750
v -0.640625 -0.640625 0.343750
v -0.343750 -0.640625 0.640625
v -0.640625 -0.343750 0.640625
v -0.343750 -0.640625 -0.640625
v -0.640625 -0.343750 -0.640625
v 0.640625 -0.640625 -0.343750
v 0.640625 -0.343750 -0.640625
v 0.640625 -0.343750 0.640625
v -0.640625 0.640625 0.343750
v -0.343750 0.640625 0.640625
v -0.343750 0.640625 -0.640625
v 0.640625 0.640625 -0.343750
v 0.364583 0.000000 0.833333
v -0.364584 0.000000 0.833333
v -0.000000 0.364583 0.833333
v -0.000000 -0.364583 0.833333
v 0.833333 0.000000 0.364584
v 0.833333 0.000000 -0.364583
v 0.833333 -0.364583 0.000000
v 0.833333 0.364583 0.000000
v 0.364584 0.000000 -0.833333
v -0.364583 0.000000 -0.833333
v 0.000000 -0.364583 -0.833333
v 0.000000 0.364583 -0.833333
v -0.833333 0.000000 -0.364584
v -0.833333 0.000000 0.364583
v -0.833333 -0.364583 -0.000000
v -0.833333 0.364583 -0.000000
v 0.000000 0.833333 -0.364583
v -0.000000 0.833333 0.364583
v -0.364583 0.833333 -0.000000
v 0.364583 0.833333 -0.000000
v 0.364583 -0.833333 0.000000
v -0.364583 -0.833333 0.000000
v -0.000000 -0.833333 0.364583
v 0.000000 -0.833333 -0.364583
v -0.555556 -0.555556 0.555556
v -0.555555 -0.555556 -0.555556
v 0.555556 -0.555556 -0.555555
v 0.555555 -0.555556 0.555556
v -0.555556 0.555556 0.555555
v -0.555555 0.555556 -0.555556
v 0.555556 0.555556 -0.555556
v 0.555556 0.555556 0.555556
v -0.664062 -0.664062 -0.000000
v -0.000000 -0.664062 0.664063
v -0.664063 0.000000 0.664062
v 0.000000 -0.664062 -0.664062
v -0.664062 0.000000 -0.664063
v 0.664062 -0.664062 0.000000
v 0.664063 0.000000 -0.664062
v 0.664062 0.000000 0.664063
v -0.664062 0.664062 -0.000000
v -0.000000 0.664062 0.664062
v 0.000000 0.664062 -0.664063
v 0.664063 0.664062 0.000000
v -0.000000 0.000000 0.885417
v 0.885417 0.000000 0.000000
v 0.000000 0.000000 -0.885417
v -0.885417 0.000000 -0.000000
v 0.000000 0.885417 -0.000000
v -0.000000 -0.885417 0.000000
vn 0.140400 -0.982800 -0.119800
vn 0.092500 -0.866800 -0.489900
vn 0.478900 -0.769300 -0.423000
vn 0.489900 -0.866800 -0.092500
vn 0.119800 0.982800 -0.140400
vn 0.489900 0.866800 -0.092500
vn 0.423000 0.769300 -0.478900
vn 0.092500 0.866800 -0.489900
vn -0.982800 0.119800 -0.140400
vn -0.866800 0.489900 -0.092500
vn -0.769300 0.423000 -0.478900
vn -0.866800 0.092500 -0.489900
vn 0.140400 0.119800 -0.982800
vn 0.092500 0.489900 -0.866800
vn 0.478900 0.423000 -0.769300
vn 0.489900 0.092500 -0.866800
vn 0.982800 0.119800 0.140400
vn 0.866800 0.489900 0.092500
vn 0.769300 0.423000 0.478900
vn 0.866800 0.092500 0.489900
vn 0.140400 -0.119800 0.982800
vn 0.092500 -0.489900 0.866800
vn 0.478900 -0.423000 0.769300
vn 0.489900 -0.092500 0.866800
vn 0.092500 0.489900 0.866800
vn 0.119800 0.140400 0.982800
vn 0.489900 0.092500 0.866800
vn 0.423000 0.478900 0.769300
vn -0.478900 0.423000 0.769300
vn -0.489900 0.092500 0.866800
vn -0.140400 0.119800 0.982800
vn -0.092500 0.489900 0.866800
vn -0.489900 -0.092500 0.866800
vn -0.423000 -0.478900 0.769300
vn -0.092500 -0.489900 0.866800
vn -0.119800 -0.140400 0.982800
vn 0.866800 -0.489900 0.092500
vn 0.982800 -0.140400 0.119800
vn 0.866800 -0.092500 0.489900
vn 0.769300 -0.478900 0.423000
vn 0.769300 -0.423000 -0.478900
vn 0.866800 -0.092500 -0.489900
vn 0.982800 -0.119800 -0.140400
vn 0.866800 -0.489900 -0.092500
vn 0.866800 0.092500 -0.489900
vn 0.769300 0.478900 -0.423000
vn 0.866800 0.489900 -0.092500
vn 0.982800 0.140400 -0.119800
vn 0.092500 -0.489900 -0.866800
vn 0.119800 -0.140400 -0.982800
vn 0.489900 -0.092500 -0.866800
vn 0.423000 -0.478900 -0.769300
vn -0.478900 -0.423000 -0.769300
vn -0.489900 -0.092500 -0.866800
vn -0.140400 -0.119800 -0.982800
vn -0.092500 -0.489900 -0.866800
vn -0.489900 0.092500 -0.866800
vn -0.423000 0.478900 -0.769300
vn -0.092500 0.489900 -0.866800
vn -0.119800 0.140400 -0.982800
vn -0.866800 -0.489900 -0.092500
vn -0.982800 -0.140400 -0.119800
vn -0.866800 -0.092500 -0.489900
vn -0.769300 -0.478900 -0.423000
vn -0.769300 -0.423000 0.478900
vn -0.866800 -0.092500 0.489900
vn -0.982800 -0.119800 0.140400
vn -0.866800 -0.489900 0.092500
vn -0.866800 0.092500 0.489900
vn -0.769300 0.478900 0.423000
vn -0.866800 0.489900 0.092500
vn -0.982800 0.140400 0.119800
vn -0.489900 0.866800 -0.092500
vn -0.140400 0.982800 -0.119800
vn -0.092500 0.866800 -0.489900
vn -0.478900 0.769300 -0.423000
vn -0.423000 0.769300 0.478900
vn -0.092500 0.866800 0.489900
vn -0.119800 0.982800 0.140400
vn -0.489900 0.866800 0.092500
vn 0.092500 0.866800 0.489900
vn 0.478900 0.769300 0.423000
vn 0.489900 0.866800 0.092500
vn 0.140400 0.982800 0.119800
vn 0.092500 -0.866800 0.489900
vn 0.119800 -0.982800 0.140400
vn 0.489900 -0.866800 0.092500
vn 0.423000 -0.769300 0.478900
vn -0.478900 -0.769300 0.423000
vn -0.489900 -0.866800 0.092500
vn -0.140400 -0.982800 0.119800
vn -0.092500 -0.866800 0.489900
vn -0.489900 -0.866800 -0.092500
vn -0.423000 -0.769300 -0.478900
vn -0.092500 -0.866800 -0.489900
vn -0.119800 -0.982800 -0.140400
vn 0.119800 -0.982800 -0.140400
vn 0.116900 -0.876700 -0.466500
vn 0.423000 -0.769300 -0.478900
vn 0.466500 -0.876700 -0.116900
vn 0.140400 0.982800 -0.119800
vn 0.466500 0.876700 -0.116900
vn 0.478900 0.769300 -0.423000
vn 0.116900 0.876700 -0.466500
vn -0.982800 0.140400 -0.119800
vn -0.876700 0.466500 -0.116900
vn -0.769300 0.478900 -0.423000
vn -0.876700 0.116900 -0.466500
vn 0.119800 0.140400 -0.982800
vn 0.116900 0.466500 -0.876700
vn 0.423000 0.478900 -0.769300
vn 0.466500 0.116900 -0.876700
vn 0.982800 0.140400 0.119800
vn 0.876700 0.466500 0.116900
vn 0.769300 0.478900 0.423000
vn 0.876700 0.116900 0.466500
vn 0.119800 -0.140400 0.982800
vn 0.116900 -0.466500 0.876700
vn 0.423000 -0.478900 0.769300
vn 0.466500 -0.116900 0.876700
vn 0.116900 0.466500 0.876700
vn 0.140400 0.119800 0.982800
vn 0.466500 0.116900 0.876700
vn 0.478900 0.423000 0.769300
vn -0.423000 0.478900 0.769300
vn -0.466500 0.116900 0.876700
vn -0.119800 0.140400 0.982800
vn -0.116900 0.466500 0.876700
vn -0.466500 -0.116900 0.876700
vn -0.478900 -0.423000 0.769300
vn -0.116900 -0.466500 0.876700
vn -0.140400 -0.119800 0.982800
vn 0.876700 -0.466500 0.116900
vn 0.982800 -0.119800 0.140400
vn 0.876700 -0.116900 0.466500
vn 0.769300 -0.423000 0.478900
vn 0.769300 -0.478900 -0.423000
vn 0.876700 -0.116900 -0.466500
vn 0.982800 -0.140400 -0.119800
vn 0.876700 -0.466500 -0.116900
vn 0.876700 0.116900 -0.466500
vn 0.769300 0.423000 -0.478900
vn 0.876700 0.466500 -0.116900
vn 0.982800 0.119800 -0.140400
vn 0.116900 -0.466500 -0.876700
vn 0.140400 -0.119800 -0.982800
vn 0.466500 -0.116900 -0.876700
vn 0.478900 -0.423000 -0.769300
vn -0.423000 -0.478900 -0.769300
vn -0.466500 -0.116900 -0.876700
vn -0.119800 -0.140400 -0.982800
vn -0.116900 -0.466500 -0.876700
vn -0.466500 0.116900 -0.876700
vn -0.478900 0.423000 -0.769300
vn -0.116900 0.466500 -0.876700
vn -0.140400 0.119800 -0.982800
vn -0.876700 -0.466500 -0.116900
vn -0.982800 -0.119800 -0.140400
vn -0.876700 -0.116900 -0.466500
vn -0.769300 -0.423000 -0.478900
vn -0.769300 -0.478900 0.423000
vn -0.876700 -0.116900 0.466500
vn -0.982800 -0.140400 0.119800
vn -0.876700 -0.466500 0.116900
vn -0.876700 0.116900 0.466500
vn -0.769300 0.423000 0.478900
vn -0.876700 0.466500 0.116900
vn -0.982800 0.119800 0.140400
vn -0.466500 0.876700 -0.116900
vn -0.119800 0.982800 -0.140400
vn -0.116900 0.876700 -0.466500
vn -0.423000 0.769300 -0.478900
vn -0.478900 0.769300 0.423000
vn -0.116900 0.876700 0.466500
vn -0.140400 0.982800 0.119800
vn -0.466500 0.876700 0.116900
vn 0.116900 0.876700 0.466500
vn 0.423000 0.769300 0.478900
vn 0.466500 0.876700 0.116900
vn 0.119800 0.982800 0.140400
vn 0.116900 -0.876700 0.466500
vn 0.140400 -0.982800 0.119800
vn 0.466500 -0.876700 0.116900
vn 0.478900 -0.769300 0.423000
vn -0.423000 -0.769300 0.478900
vn -0.466500 -0.876700 0.116900
vn -0.119800 -0.982800 0.140400
vn -0.116900 -0.876700 0.466500
vn -0.466500 -0.876700 -0.116900
vn -0.478900 -0.769300 -0.423000
vn -0.116900 -0.876700 -0.466500
vn -0.140400 -0.982800 -0.119800
usemtl Material
s off
f 1//1 69//1 98//1
f 72//2 84//2 28//2
f 1//3 28//3 75//3
f 42//4 86//4 69//4
f 2//5 65//5 97//5
f 68//6 92//6 48//6
f 2//7 48//7 79//7
f 35//8 91//8 65//8
f 3//9 61//9 96//9
f 64//10 89//10 33//10
f 3//11 33//11 78//11
f 29//12 85//12 61//12
f 4//13 57//13 95//13
f 60//14 91//14 35//14
f 4//15 35//15 79//15
f 31//16 87//16 57//16
f 5//17 53//17 94//17
f 56//18 92//18 36//18
f 5//19 36//19 80//19
f 32//20 88//20 53//20
f 6//21 49//21 93//21
f 52//22 82//22 26//22
f 6//23 26//23 76//23
f 44//24 88//24 49//24
f 34//25 90//25 51//25
f 7//26 51//26 93//26
f 49//27 88//27 32//27
f 7//28 32//28 80//28
f 8//29 46//29 77//29
f 27//30 83//30 50//30
f 8//31 50//31 93//31
f 51//32 90//32 46//32
f 50//33 83//33 39//33
f 9//34 39//34 73//34
f 38//35 82//35 52//35
f 9//36 52//36 93//36
f 30//37 86//37 55//37
f 10//38 55//38 94//38
f 53//39 88//39 44//39
f 10//40 44//40 76//40
f 11//41 42//41 75//41
f 43//42 87//42 54//42
f 11//43 54//43 94//43
f 55//44 86//44 42//44
f 54//45 87//45 31//45
f 12//46 31//46 79//46
f 48//47 92//47 56//47
f 12//48 56//48 94//48
f 28//49 84//49 59//49
f 13//50 59//50 95//50
f 57//51 87//51 43//51
f 13//52 43//52 75//52
f 14//53 40//53 74//53
f 41//54 85//54 58//54
f 14//55 58//55 95//55
f 59//56 84//56 40//56
f 58//57 85//57 29//57
f 15//58 29//58 78//58
f 47//59 91//59 60//59
f 15//60 60//60 95//60
f 25//61 81//61 63//61
f 16//62 63//62 96//62
f 61//63 85//63 41//63
f 16//64 41//64 74//64
f 17//65 37//65 73//65
f 39//66 83//66 62//66
f 17//67 62//67 96//67
f 63//68 81//68 37//68
f 62//69 83//69 27//69
f 18//70 27//70 77//70
f 45//71 89//71 64//71
f 18//72 64//72 96//72
f 33//73 89//73 67//73
f 19//74 67//74 97//74
f 65//75 91//75 47//75
f 19//76 47//76 78//76
f 20//77 45//77 77//77
f 46//78 90//78 66//78
f 20//79 66//79 97//79
f 67//80 89//80 45//80
f 66//81 90//81 34//81
f 21//82 34//82 80//82
f 36//83 92//83 68//83
f 21//84 68//84 97//84
f 26//85 82//85 71//85
f 22//86 71//86 98//86
f 69//87 86//87 30//87
f 22//88 30//88 76//88
f 23//89 38//89 73//89
f 37//90 81//90 70//90
f 23//91 70//91 98//91
f 71//92 82//92 38//92
f 70//93 81//93 25//93
f 24//94 25//94 74//94
f 40//95 84//95 72//95
f 24//96 72//96 98//96
f 72//97 1//97 98//97
f 1//98 72//98 28//98
f 42//99 1//99 75//99
f 1//100 42//100 69//100
f 68//101 2//101 97//101
f 2//102 68//102 48//102
f 35//103 2//103 79//103
f 2//104 35//104 65//104
f 64//105 3//105 96//105
f 3//106 64//106 33//106
f 29//107 3//107 78//107
f 3//108 29//108 61//108
f 60//109 4//109 95//109
f 4//110 60//110 35//110
f 31//111 4//111 79//111
f 4//112 31//112 57//112
f 56//113 5//113 94//113
f 5//114 56//114 36//114
f 32//115 5//115 80//115
f 5//116 32//116 53//116
f 52//117 6//117 93//117
f 6//118 52//118 26//118
f 44//119 6//119 76//119
f 6//120 44//120 49//120
f 7//121 34//121 51//121
f 49//122 7//122 93//122
f 7//123 49//123 32//123
f 34//124 7//124 80//124
f 27//125 8//125 77//125
f 8//126 27//126 50//126
f 51//127 8//127 93//127
f 8//128 51//128 46//128
f 9//129 50//129 39//129
f 38//130 9//130 73//130
f 9//131 38//131 52//131
f 50//132 9//132 93//132
f 10//133 30//133 55//133
f 53//134 10//134 94//134
f 10//135 53//135 44//135
f 30//136 10//136 76//136
f 43//137 11//137 75//137
f 11//138 43//138 54//138
f 55//139 11//139 94//139
f 11//140 55//140 42//140
f 12//141 54//141 31//141
f 48//142 12//142 79//142
f 12//143 48//143 56//143
f 54//144 12//144 94//144
f 13//145 28//145 59//145
f 57//146 13//146 95//146
f 13//147 57//147 43//147
f 28//148 13//148 75//148
f 41//149 14//149 74//149
f 14//150 41//150 58//150
f 59//151 14//151 95//151
f 14//152 59//152 40//152
f 15//153 58//153 29//153
f 47//154 15//154 78//154
f 15//155 47//155 60//155
f 58//156 15//156 95//156
f 16//157 25//157 63//157
f 61//158 16//158 96//158
f 16//159 61//159 41//159
f 25//160 16//160 74//160
f 39//161 17//161 73//161
f 17//162 39//162 62//162
f 63//163 17//163 96//163
f 17//164 63//164 37//164
f 18//165 62//165 27//165
f 45//166 18//166 77//166
f 18//167 45//167 64//167
f 62//168 18//168 96//168
f 19//169 33//169 67//169
f 65//170 19//170 97//170
f 19//171 65//171 47//171
f 33//172 19//172 78//172
f 46//173 20//173 77//173
f 20//174 46//174 66//174
f 67//175 20//175 97//175
f 20//176 67//176 45//176
f 21//177 66//177 34//177
f 36//178 21//178 80//178
f 21//179 36//179 68//179
f 66//180 21//180 97//180
f 22//181 26//181 71//181
f 69//182 22//182 98//182
f 22//183 69//183 30//183
f 26//184 22//184 76//184
f 37//185 23//185 73//185
f 23//186 37//186 70//186
f 71//187 23//187 98//187
f 23//188 71//188 38//188
f 24//189 70//189 25//189
f 40//190 24//190 74//190
f 24//191 40//191 72//191
f 70//192 24//192 98//192
