# Blender v2.74 (sub 0) OBJ File: 'texCube.blend'
# www.blender.org
mtllib invCube.mtl
o Cube
v -1.000000 -1.000000 -1.000000
v -1.000000 -1.000000 1.000000
v 1.000000 -1.000000 -1.000000
v 1.000000 -1.000000 1.000000
v -1.000000 1.000000 -1.000000
v -1.000000 1.000000 1.000000
v 1.000000 1.000000 -1.000000
v 1.000000 1.000000 1.000000
v 0.000000 -1.000000 1.000000
v 0.000000 -1.000000 -1.000000
v 0.000000 1.000000 1.000000
v 0.000000 1.000000 -1.000000
vt 0.375022 0.250043
vt 0.375022 0.500000
vt 0.250043 0.500000
vt 0.250043 0.999913
vt 0.250043 0.749957
vt 0.375022 0.749957
vt 0.000087 0.250043
vt 0.250043 0.250043
vt 0.250043 0.000087
vt 0.000087 0.000087
vt 0.375022 0.000087
vt 0.375022 0.999913
vn 0.000000 -1.000000 0.000000
vn 0.000000 1.000000 0.000000
vn -1.000000 -0.000000 0.000000
vn 0.000000 0.000000 -1.000000
vn 1.000000 -0.000000 0.000000
vn -0.000000 0.000000 1.000000
usemtl Material
s off
f 9/1/1 10/2/1 3/3/1
f 8/4/2 7/5/2 12/6/2
f 1/7/3 2/8/3 6/9/3
f 12/6/4 7/5/4 3/3/4
f 3/7/5 7/10/5 8/9/5
f 11/11/6 9/1/6 4/8/6
f 10/2/4 12/6/4 3/3/4
f 5/10/3 1/7/3 6/9/3
f 11/12/2 8/4/2 12/6/2
f 4/8/1 9/1/1 3/3/1
f 1/3/4 5/5/4 12/6/4
f 11/11/6 6/9/6 2/8/6
f 9/1/1 2/8/1 1/3/1
f 11/12/2 12/6/2 5/5/2
f 4/8/5 3/7/5 8/9/5
f 8/9/6 11/11/6 4/8/6
f 10/2/4 1/3/4 12/6/4
f 9/1/6 11/11/6 2/8/6
f 10/2/1 9/1/1 1/3/1
f 6/4/2 11/12/2 5/5/2
