# Blender v2.74 (sub 0) OBJ File: ''
# www.blender.org
mtllib test.mtl
o Cube
v -1.000000 -1.000000 1.000000
v -1.000000 -1.000000 -1.000000
v 1.000000 -1.000000 -1.000000
v -1.000000 1.000000 0.999999
v -0.999999 1.000000 -1.000001
v 1.000000 1.000000 -1.000000
v 1.000000 1.000000 1.000000
vn 0.000000 1.000000 0.000000
vn -1.000000 0.000000 -0.000000
vn 0.000000 0.000000 -1.000000
usemtl Material
s off
f 7//1 6//1 5//1
f 4//2 5//2 2//2
f 5//3 6//3 3//3
f 4//1 7//1 5//1
f 1//2 4//2 2//2
f 2//3 5//3 3//3
